<?xml version="1.0" encoding="UTF-8" standalone="no"?>
<!DOCTYPE svg PUBLIC "-//W3C//DTD SVG 1.1//EN" "http://www.w3.org/Graphics/SVG/1.1/DTD/svg11.dtd">
<svg width="100%" height="100%" viewBox="0 0 934 1041" version="1.1" xmlns="http://www.w3.org/2000/svg" xmlns:xlink="http://www.w3.org/1999/xlink" xml:space="preserve" xmlns:serif="http://www.serif.com/" style="fill-rule:evenodd;clip-rule:evenodd;stroke-linejoin:round;stroke-miterlimit:2;">
    <g transform="matrix(1,0,0,1,-33.404796,20.185043)">
        <g transform="matrix(1.224473,0,0,1.224473,-188.8666,-159.97994)">
            <path d="M562.582,212.32L845.487,375.655L845.487,702.326L562.582,865.662L279.676,702.326L279.676,375.655L562.582,212.32Z" style="fill:rgb(235,235,235);"/>
            <path d="M899.933,344.221L899.933,733.76L562.582,928.53L225.231,733.76L225.231,344.221L562.582,149.452L899.933,344.221ZM562.582,212.32L279.676,375.655L279.676,702.326L562.582,865.662L845.487,702.326L845.487,375.655L562.582,212.32Z" style="fill:url(#_Linear1);"/>
        </g>
        <g transform="matrix(1.183308,0,0,1.623269,440.632717,-353.986395)">
            <path d="M-169.383,637.779L-169.383,413.232L-120.875,413.232L-120.875,637.779L-169.383,637.779ZM-213.277,637.779L-213.277,607.734L-76.651,607.734L-76.651,637.779L-213.277,637.779ZM-213.277,443.277L-213.277,413.232L-76.651,413.232L-76.651,443.277L-213.277,443.277Z" style="fill-rule:nonzero;"/>
            <path d="M39.418,558.392L44.162,509.692L46.059,509.692L71.676,413.232L102.622,413.232L102.622,465.41L93.45,465.41L63.607,558.392L39.418,558.392ZM-46.761,637.779L-46.761,413.232L-7.934,413.232L-7.934,637.779L-46.761,637.779ZM26.001,558.392L-3.822,465.41L-12.994,465.41L-12.994,413.232L17.912,413.232L43.529,509.692L44.794,509.692L47.957,558.392L26.001,558.392ZM97.562,637.779L97.562,413.232L136.409,413.232L136.409,637.779L97.562,637.779Z" style="fill-rule:nonzero;"/>
            <path d="M164.974,637.779L164.974,413.232L205.075,413.232L205.075,637.779L164.974,637.779ZM164.974,637.779L164.974,607.734L322.035,607.734L322.035,637.779L164.974,637.779ZM167.765,540.369L167.765,510.324L293.572,510.324L293.572,540.369L167.765,540.369ZM164.974,443.277L164.974,413.232L322.035,413.232L322.035,443.277L164.974,443.277Z" style="fill-rule:nonzero;"/>
        </g>
    </g>
    <defs>
        <linearGradient id="_Linear1" x1="0" y1="0" x2="1" y2="0" gradientUnits="userSpaceOnUse" gradientTransform="matrix(-620.803409,0,-0,-620.803409,872.448443,538.990826)"><stop offset="0" style="stop-color:rgb(248,40,70);stop-opacity:1"/><stop offset="1" style="stop-color:rgb(45,129,253);stop-opacity:1"/></linearGradient>
    </defs>
</svg>
